<?xml version="1.0" standalone="no"?>
<!DOCTYPE svg PUBLIC "-//W3C//DTD SVG 20010904//EN"
 "http://www.w3.org/TR/2001/REC-SVG-20010904/DTD/svg10.dtd">
<svg version="1.0" xmlns="http://www.w3.org/2000/svg"
 width="2021.000000pt" height="1136.000000pt" viewBox="0 0 2021.000000 1136.000000"
 preserveAspectRatio="xMidYMid meet">
<metadata>
Created by potrace 1.13, written by Peter Selinger 2001-2015
</metadata>
<g transform="translate(0.000000,1136.000000) scale(0.100000,-0.100000)"
fill="#000000" stroke="none">
<path d="M16128 10826 c-1 -2 -50 -6 -108 -10 -160 -9 -266 -32 -430 -93 -408
-152 -633 -392 -754 -803 -26 -90 -29 -106 -51 -265 -12 -91 -13 -360 -1 -438
29 -188 49 -276 102 -434 179 -536 484 -1039 1012 -1673 l121 -145 -52 -12
c-29 -7 -67 -16 -86 -19 -18 -3 -43 -7 -54 -10 -103 -19 -301 -41 -361 -39
-266 10 -538 142 -774 374 -164 162 -276 311 -342 455 -48 104 -62 161 -66
266 -3 110 -19 176 -51 223 -35 50 -74 70 -141 70 -43 0 -62 -6 -95 -29 -70
-49 -97 -122 -101 -272 -5 -150 25 -278 97 -428 269 -552 807 -985 1305 -1051
98 -12 415 -6 523 12 13 2 51 6 84 10 93 10 242 44 329 76 l80 29 35 -25 c20
-14 67 -54 105 -89 l69 -63 -29 -7 c-43 -11 -91 -43 -116 -79 -23 -31 -23 -38
-24 -312 0 -154 -4 -309 -8 -345 -14 -125 -22 -184 -31 -230 -3 -14 -14 -74
-25 -135 -49 -269 -113 -406 -208 -444 -77 -32 -214 22 -316 123 -61 60 -154
178 -194 246 -57 95 -145 290 -156 342 -3 13 -7 33 -10 46 -11 51 -9 121 4
137 12 14 19 11 64 -33 83 -81 151 -104 228 -76 144 51 158 235 28 377 -121
133 -320 175 -477 100 -68 -31 -190 -148 -224 -213 -29 -55 -69 -150 -64 -150
3 0 1 -10 -4 -23 -32 -85 -30 -283 6 -422 14 -56 13 -135 -2 -268 -2 -18 -6
-59 -10 -92 -7 -65 -8 -74 -25 -185 -35 -225 -116 -384 -217 -427 -44 -18 -80
-2 -186 81 -177 139 -232 221 -261 386 -3 19 -8 45 -11 58 -2 13 -6 62 -9 110
-12 185 -19 239 -37 291 -49 142 -206 220 -334 167 -112 -47 -156 -164 -135
-365 l4 -44 -41 -3 c-213 -16 -423 -214 -499 -469 -26 -90 -24 -242 6 -320 62
-161 195 -293 351 -345 90 -31 212 -25 286 13 69 35 144 112 189 193 l36 64
41 -34 c89 -72 283 -171 377 -191 224 -49 399 -9 542 123 125 116 227 327 270
558 6 35 15 64 20 64 5 0 23 -14 41 -31 112 -107 309 -212 437 -233 19 -3 46
-8 60 -11 14 -3 63 -6 110 -6 182 -1 377 100 484 248 81 113 169 346 201 532
3 19 7 37 9 40 2 3 7 31 11 61 4 30 8 57 10 60 2 3 6 34 9 70 4 36 8 76 11 90
4 23 12 119 21 240 2 25 3 144 4 264 l0 219 23 -20 c12 -11 40 -36 62 -55 208
-186 479 -382 647 -467 97 -49 176 -59 263 -34 88 27 176 104 207 183 27 69
16 191 -23 258 -10 18 -19 34 -19 35 0 1 91 2 203 2 247 0 277 4 457 60 140
43 192 69 253 125 43 39 55 58 71 111 53 178 -29 319 -186 319 -77 0 -150 -48
-165 -109 -3 -14 -12 -31 -18 -38 -16 -16 -77 -40 -117 -47 -18 -3 -44 -8 -58
-11 -68 -16 -144 -22 -235 -19 -101 3 -126 5 -180 19 -45 11 -44 11 -29 68 20
75 26 187 14 242 -26 116 -100 220 -190 269 -44 24 -65 29 -129 30 -64 1 -85
-3 -132 -26 -132 -65 -202 -208 -203 -413 -1 -60 2 -129 7 -153 9 -50 10 -50
-78 23 -210 174 -375 320 -375 332 0 5 18 27 41 48 88 85 244 283 325 415 173
278 286 629 342 1065 4 28 7 160 6 295 0 272 -10 363 -70 634 -147 663 -492
1171 -916 1347 -86 35 -214 67 -303 75 -38 3 -75 7 -82 9 -6 2 -13 2 -15 1z
m157 -160 c35 -5 108 -27 163 -47 308 -112 590 -454 761 -919 44 -121 77 -241
111 -409 44 -212 58 -365 54 -586 -5 -224 -8 -265 -35 -401 -5 -28 -12 -64
-15 -80 -12 -70 -55 -239 -82 -320 -77 -231 -161 -394 -299 -577 -92 -122
-106 -139 -225 -263 -122 -127 -123 -133 -35 -218 35 -34 94 -88 132 -121 37
-33 79 -69 91 -80 13 -11 42 -36 65 -55 23 -19 47 -40 53 -46 84 -80 507 -394
532 -394 16 0 18 12 5 25 -17 18 -108 209 -129 270 -36 108 -46 168 -45 285 1
121 31 210 93 272 17 16 74 35 98 32 6 -1 23 -2 36 -3 33 -2 102 -70 128 -127
28 -64 27 -131 -2 -275 -31 -149 -28 -154 91 -187 46 -12 107 -27 134 -32 61
-12 327 -5 375 9 19 6 50 13 68 16 49 8 123 35 159 56 32 20 93 102 93 126 0
20 47 16 70 -7 42 -42 9 -151 -59 -195 -49 -32 -237 -92 -341 -110 -95 -15
-372 -13 -455 3 -113 23 -231 76 -266 120 -27 35 -22 95 17 178 24 50 29 74
31 156 2 89 0 100 -20 124 -41 47 -96 32 -124 -35 -14 -33 -19 -203 -8 -266
26 -142 56 -208 173 -376 123 -179 124 -180 125 -243 2 -43 -3 -59 -25 -88
-44 -58 -125 -85 -196 -66 -43 12 -304 167 -332 198 -3 3 -30 23 -60 45 -30
22 -57 42 -60 45 -3 3 -27 23 -55 45 -27 21 -54 44 -60 50 -5 5 -26 23 -45 39
-19 16 -66 56 -104 90 -38 33 -77 68 -86 76 -37 32 -205 186 -224 205 -46 45
-145 126 -172 140 -43 22 -80 19 -195 -19 -203 -67 -436 -98 -729 -98 -252 0
-479 80 -725 253 -248 175 -466 430 -606 709 -70 139 -83 190 -86 340 -2 108
1 142 14 168 21 42 60 45 69 5 3 -16 7 -33 9 -40 2 -6 5 -49 6 -94 6 -251 154
-515 455 -815 197 -196 419 -326 654 -381 36 -8 74 -17 85 -20 41 -9 222 -11
285 -2 36 5 83 11 105 14 22 3 65 9 95 15 30 5 71 12 90 15 19 3 42 8 50 10 8
2 28 6 43 9 47 8 140 37 184 57 56 25 62 49 24 91 -39 44 -65 74 -109 127 -21
24 -42 49 -47 55 -11 11 -136 163 -165 200 -8 10 -27 33 -41 50 -14 17 -58 74
-97 126 -39 52 -75 100 -80 105 -4 6 -34 48 -67 95 -32 47 -62 87 -65 90 -3 3
-22 31 -42 62 -19 32 -37 55 -40 53 -2 -3 -5 1 -5 8 -1 6 -37 72 -81 145 -45
73 -93 156 -107 185 -15 29 -30 59 -36 67 -16 26 -105 223 -124 275 -10 28
-22 55 -26 60 -18 26 -109 322 -128 420 -43 223 -47 441 -10 660 5 33 14 74
20 92 6 17 12 42 14 55 9 49 74 199 121 278 53 89 177 224 256 278 150 103
432 204 623 226 40 4 273 -1 310 -8z m286 -4388 c21 -23 21 -26 16 -308 -4
-157 -8 -296 -11 -310 -2 -14 -7 -56 -11 -95 -7 -77 -13 -126 -20 -165 -3 -14
-8 -43 -11 -65 -3 -22 -10 -60 -16 -85 -5 -25 -11 -52 -13 -60 -41 -199 -131
-404 -210 -483 -40 -40 -134 -94 -202 -118 -152 -52 -390 7 -568 141 -102 76
-221 210 -282 317 l-29 52 -13 -144 c-40 -477 -174 -760 -398 -845 -221 -84
-587 74 -765 329 -13 18 -19 21 -22 10 -3 -8 -17 -48 -32 -89 -57 -162 -122
-258 -200 -298 -142 -72 -371 58 -441 252 -19 54 -19 168 0 234 22 71 80 179
121 224 19 20 32 39 30 42 -2 3 -1 4 2 1 4 -2 21 7 38 22 57 48 125 73 198 73
79 0 116 -14 125 -48 11 -45 -7 -57 -83 -57 -75 0 -103 -11 -147 -59 -59 -62
-72 -101 -72 -221 0 -102 2 -114 29 -168 74 -145 189 -167 260 -50 48 80 69
180 70 338 1 121 -7 275 -18 340 -12 67 -21 232 -17 291 1 6 12 23 26 38 34
37 83 36 130 -5 49 -43 52 -60 70 -329 22 -331 111 -485 397 -686 137 -97 253
-93 364 13 101 96 165 235 199 434 26 149 59 460 58 539 0 14 -8 57 -17 95
-40 164 -30 335 27 455 33 70 119 165 175 194 121 63 310 -5 357 -128 36 -94
-15 -116 -93 -40 -66 66 -118 90 -183 85 -22 -1 -97 -68 -114 -101 -31 -60
-22 -202 21 -329 14 -41 51 -126 83 -190 126 -255 291 -448 452 -528 205 -101
358 -63 473 119 20 31 36 63 36 71 0 7 4 17 9 22 16 17 59 183 86 330 14 77
27 151 30 164 2 13 7 49 10 80 4 31 9 67 12 81 3 14 6 159 8 323 1 244 4 301
16 308 22 14 37 11 60 -13z m-2796 -1663 c1 -71 -30 -215 -46 -215 -18 0 -33
48 -35 115 -3 82 25 148 61 143 16 -2 20 -11 20 -43z"/>
<path d="M15900 10562 c-142 -24 -420 -126 -420 -154 0 -4 -4 -8 -10 -8 -28 0
-160 -131 -216 -213 -173 -256 -231 -543 -179 -888 75 -504 323 -1005 799
-1616 52 -66 116 -145 143 -175 89 -100 445 -450 467 -457 28 -11 69 4 98 37
13 15 37 38 53 52 17 14 53 52 80 84 28 32 63 72 78 90 112 125 252 362 330
561 119 299 168 586 163 945 -5 333 -39 520 -149 820 -89 244 -303 579 -456
715 -19 16 -39 35 -45 40 -19 19 -102 73 -152 100 -144 78 -370 104 -584 67z
m375 -142 c198 -42 371 -192 553 -480 99 -159 159 -287 218 -470 28 -86 70
-271 79 -345 4 -27 9 -61 12 -75 3 -14 6 -117 8 -230 6 -385 -62 -711 -216
-1030 -56 -116 -178 -312 -231 -370 -13 -14 -58 -65 -101 -113 -44 -48 -83
-87 -88 -87 -14 0 -300 285 -394 395 -110 127 -298 375 -402 530 -339 509
-517 993 -514 1403 0 57 2 106 5 110 2 4 7 27 10 52 12 93 64 244 113 329 38
67 116 162 165 204 98 84 294 162 458 183 25 4 46 7 48 9 8 7 226 -4 277 -15z"/>
<path d="M5190 9140 c-149 -46 -302 -161 -414 -310 -22 -30 -43 -57 -47 -60
-3 -3 -30 -39 -61 -80 -61 -84 -111 -135 -148 -155 -39 -20 -116 -26 -395 -30
-283 -3 -361 -9 -474 -32 -356 -71 -644 -328 -690 -614 -15 -88 -5 -143 36
-197 67 -90 209 -94 293 -9 27 27 56 98 65 160 5 37 32 97 57 127 29 34 108
91 160 115 50 23 99 36 228 60 46 9 460 19 460 11 0 -3 -29 -50 -63 -103 -359
-553 -647 -1017 -823 -1328 -207 -366 -426 -822 -545 -1131 l-23 -62 -46 37
c-25 20 -47 38 -50 41 -3 3 -45 39 -95 80 -74 62 -487 422 -614 535 -19 16
-39 35 -45 40 -7 6 -39 36 -73 68 -62 58 -83 69 -83 43 0 -28 -18 -25 -60 11
-28 24 -39 30 -32 17 10 -19 28 -35 147 -135 84 -71 100 -85 137 -122 21 -21
38 -42 38 -48 0 -20 -68 27 -315 216 -66 51 -129 95 -140 99 -11 3 -33 18 -49
33 -25 23 -86 40 -86 24 0 -3 39 -44 88 -90 75 -73 81 -81 45 -61 -44 24 -171
117 -220 160 -56 51 -55 42 4 -36 73 -96 100 -144 80 -144 -14 0 -117 61 -247
146 -41 27 -95 60 -120 73 -52 28 -48 20 35 -65 28 -28 49 -58 47 -65 -1 -8
19 -36 44 -64 26 -27 87 -95 138 -149 50 -55 114 -125 143 -155 67 -73 82 -90
178 -196 93 -102 98 -107 230 -250 55 -59 114 -126 130 -149 60 -84 128 -150
318 -306 44 -36 93 -77 110 -93 18 -15 62 -51 99 -80 55 -42 67 -57 68 -82 5
-112 34 -189 96 -251 68 -67 187 -98 293 -75 l52 11 137 -97 c196 -138 554
-374 792 -523 596 -371 986 -587 1547 -859 418 -202 525 -250 749 -329 94 -34
193 -71 220 -83 182 -79 700 -267 924 -334 331 -101 788 -220 962 -250 15 -3
74 -15 130 -26 57 -11 112 -22 123 -24 11 -3 63 -11 115 -20 52 -8 106 -17
120 -20 14 -3 45 -7 70 -10 25 -3 57 -8 71 -10 14 -3 43 -7 65 -10 21 -2 59
-7 84 -10 89 -12 106 -14 180 -21 41 -4 98 -8 125 -8 l50 -1 2 97 c1 54 -2
100 -8 103 -5 4 -35 8 -66 10 -32 3 -85 7 -118 11 -33 3 -80 7 -105 10 -84 7
-179 18 -250 28 -32 5 -94 13 -175 22 -65 7 -263 35 -315 44 -30 5 -71 12 -90
15 -19 3 -46 7 -60 10 -14 2 -43 7 -65 10 -23 3 -50 7 -60 9 -11 2 -40 7 -65
10 -60 9 -117 21 -290 63 -80 19 -152 36 -160 38 -8 2 -44 11 -80 20 -36 9
-72 18 -80 20 -105 21 -811 243 -828 260 -2 2 11 3 29 3 19 -1 84 -20 145 -44
127 -48 225 -79 409 -128 72 -19 162 -43 200 -54 39 -11 84 -20 100 -20 24 0
127 -20 285 -57 170 -39 369 -80 440 -91 19 -3 46 -7 60 -10 14 -2 45 -7 70
-10 25 -3 56 -7 70 -9 14 -2 45 -7 70 -10 25 -3 110 -17 190 -30 80 -13 165
-27 190 -30 40 -5 64 -8 150 -20 14 -2 54 -6 90 -10 36 -3 76 -8 90 -10 64
-10 210 -16 210 -8 0 5 -9 26 -20 48 -18 36 -20 59 -5 104 3 11 34 31 73 49
69 31 108 61 81 63 -50 3 -186 18 -219 24 -14 2 -47 7 -75 10 -27 4 -59 8 -70
9 -11 2 -45 6 -75 10 -61 8 -74 10 -175 26 -105 16 -181 29 -275 46 -14 2 -52
8 -85 14 -66 11 -66 11 -210 40 -128 26 -138 28 -210 41 -33 5 -71 12 -85 15
-14 3 -38 7 -54 9 -15 2 -35 6 -45 9 -9 3 -36 8 -61 11 -25 3 -52 8 -60 10
-23 6 -119 17 -170 20 -25 2 -51 3 -57 4 -14 1 -18 30 -5 32 25 4 76 2 139 -5
76 -7 95 -10 183 -27 30 -6 64 -12 75 -13 53 -9 238 -41 405 -71 102 -18 208
-36 235 -39 28 -3 59 -8 70 -10 18 -3 60 -10 140 -22 17 -3 66 -11 110 -19 44
-8 103 -17 130 -20 28 -4 61 -8 75 -11 14 -2 50 -6 80 -9 30 -3 66 -8 80 -10
30 -5 97 -13 163 -20 50 -4 59 6 35 37 -9 11 -38 18 -95 23 -46 3 -91 8 -100
9 -10 2 -52 7 -93 11 -41 4 -82 8 -90 10 -8 1 -46 6 -85 10 -38 4 -77 8 -85
10 -8 1 -35 6 -60 10 -25 4 -54 9 -65 11 -11 2 -31 6 -45 8 -14 3 -68 12 -120
20 -137 23 -144 25 -265 52 -60 13 -119 26 -130 28 -109 22 -187 41 -470 116
-60 16 -135 36 -165 43 -123 33 -479 143 -690 214 -547 185 -998 366 -1360
547 -189 95 -265 135 -422 225 -56 32 -82 54 -35 30 65 -34 -19 20 -173 111
-549 323 -1230 754 -1486 941 l-62 45 47 50 c25 28 75 82 109 120 319 348 699
728 1033 1029 422 382 1011 815 1393 1025 32 17 81 45 108 61 258 153 839 397
963 406 l60 4 25 -53 c74 -152 284 -151 363 2 25 49 28 63 24 126 -12 206
-166 329 -406 320 -85 -3 -114 -9 -266 -60 -93 -31 -183 -63 -200 -70 -16 -8
-88 -37 -160 -66 -134 -54 -512 -236 -645 -310 -233 -131 -528 -319 -757 -486
-256 -186 -688 -540 -897 -734 -237 -221 -428 -410 -662 -656 -160 -168 -216
-228 -373 -399 -35 -39 -62 -65 -59 -60 3 6 26 64 51 130 186 496 475 1026
1048 1920 49 77 156 250 236 385 240 402 327 522 418 575 22 13 96 46 165 73
286 114 395 188 472 322 110 190 43 418 -152 516 -69 35 -184 41 -270 14z
m198 -136 c82 -34 135 -115 135 -204 -1 -73 -21 -116 -88 -189 -61 -65 -152
-116 -335 -187 -212 -81 -278 -128 -381 -266 -61 -82 -188 -284 -339 -538 -50
-85 -124 -206 -163 -267 -230 -360 -318 -501 -437 -700 -73 -122 -132 -225
-131 -229 2 -4 -1 -10 -6 -13 -23 -15 -301 -541 -286 -541 4 0 3 -4 -3 -8 -31
-20 -217 -468 -304 -732 -78 -241 -78 -342 3 -311 30 12 66 49 207 211 8 10
53 59 100 110 47 51 93 102 102 113 89 102 388 416 569 596 315 314 521 501
836 758 98 80 192 157 209 172 16 14 33 27 37 28 4 2 67 47 140 101 152 113
417 291 562 377 55 33 102 62 105 65 3 3 30 18 60 35 30 16 91 48 135 72 308
166 638 308 941 407 179 58 285 59 372 1 56 -37 77 -78 77 -153 0 -71 -9 -82
-66 -82 -40 0 -60 20 -73 74 -4 16 -20 41 -36 57 -27 28 -33 29 -117 29 -93 0
-130 -9 -304 -73 -276 -101 -664 -288 -923 -443 -49 -30 -91 -54 -92 -54 -4 0
-92 -56 -219 -138 -566 -368 -1167 -885 -1820 -1563 -148 -154 -401 -425 -465
-499 -8 -9 -35 -39 -59 -66 -24 -27 -73 -82 -110 -123 -104 -117 -123 -134
-181 -161 -69 -32 -159 -34 -209 -5 -103 61 -102 256 4 520 20 50 63 162 97
250 71 187 147 370 213 510 63 135 182 372 207 413 11 17 16 32 11 32 -4 0 -3
4 3 8 6 4 26 36 46 72 76 141 99 182 123 220 14 22 25 42 25 44 0 6 177 302
202 339 11 15 16 27 11 27 -4 0 -3 4 3 8 6 4 29 36 51 72 22 36 92 147 156
248 64 100 113 182 109 182 -4 0 -1 4 6 8 11 7 115 166 228 347 21 33 67 104
102 158 65 101 78 132 60 143 -17 11 -574 5 -672 -7 -344 -42 -574 -205 -601
-426 -11 -85 -68 -132 -105 -87 -19 22 -14 101 10 166 68 183 261 343 490 406
114 32 218 41 541 47 291 5 376 13 433 42 51 26 117 96 233 245 128 165 181
222 266 280 119 81 224 106 305 72z m-163 -5695 c44 -16 103 -41 130 -54 194
-92 515 -239 590 -270 50 -20 194 -82 320 -137 127 -55 261 -112 298 -125 37
-14 66 -27 64 -30 -11 -10 -653 253 -927 379 -52 24 -139 64 -194 89 -119 53
-373 177 -366 178 3 1 41 -13 85 -30z"/>
<path d="M5274 8884 c-92 -63 -163 -143 -259 -295 -54 -85 -64 -109 -46 -109
20 0 159 54 236 91 185 90 272 227 196 308 -36 39 -74 40 -127 5z"/>
<path d="M20167 7018 c-13 -18 -63 -87 -112 -153 -108 -147 -195 -258 -529
-670 -75 -93 -144 -179 -153 -190 -9 -11 -25 -31 -37 -45 l-21 -25 24 20 c29
24 201 219 296 335 39 47 78 94 88 105 10 11 35 41 55 67 25 33 38 44 44 35 5
-8 8 -7 8 5 0 9 4 18 9 20 17 6 328 444 344 486 20 50 16 53 -16 10z"/>
<path d="M19683 6868 c-61 -73 -119 -143 -130 -154 -10 -12 -40 -48 -68 -80
-47 -54 -93 -107 -157 -179 -15 -16 -35 -39 -45 -51 -95 -111 -341 -370 -529
-558 -293 -294 -533 -510 -843 -760 -74 -60 -144 -118 -155 -130 -92 -94 -301
-266 -511 -422 -209 -155 -534 -382 -466 -327 159 132 291 233 394 303 41 27
152 114 187 146 19 18 49 45 65 59 33 30 18 24 -30 -10 -16 -12 -37 -26 -45
-30 -25 -13 4 12 165 146 83 68 166 138 185 155 19 17 78 69 130 115 129 114
330 310 343 334 10 19 9 19 -9 5 -27 -21 -158 -134 -164 -141 -6 -7 -138 -120
-220 -189 -30 -25 -70 -59 -90 -76 -19 -17 -69 -57 -110 -90 -41 -32 -77 -61
-80 -64 -3 -4 -104 -80 -225 -171 -362 -270 -615 -433 -615 -394 0 31 90 149
171 224 37 35 25 30 -68 -29 -35 -21 -63 -37 -63 -35 0 1 41 32 91 67 50 34
96 68 103 73 40 35 45 33 11 -5 -36 -38 -24 -32 105 55 204 138 199 135 260
190 64 58 181 160 229 201 l34 28 -17 -32 c-25 -49 -3 -38 53 25 64 72 69 91
13 56 l-27 -18 31 40 c17 22 35 47 39 55 8 13 7 13 -11 0 -10 -7 -23 -19 -29
-25 -5 -5 -41 -37 -80 -70 -38 -33 -72 -62 -75 -65 -45 -46 -352 -289 -422
-334 -15 -10 -26 -22 -23 -26 2 -4 -5 -16 -18 -26 l-22 -19 19 23 c21 24 12
30 -13 8 -9 -7 -86 -57 -171 -111 -85 -54 -166 -105 -180 -114 -37 -26 -58
-35 -35 -16 11 9 85 63 165 120 80 58 201 149 270 202 190 148 472 383 435
362 -12 -7 -138 -101 -145 -109 -3 -3 -21 -16 -40 -30 -19 -13 -108 -77 -197
-142 -565 -408 -1096 -749 -1513 -970 -41 -22 -93 -51 -115 -63 -51 -29 -501
-255 -508 -255 -2 0 -56 -24 -119 -54 -63 -30 -164 -75 -224 -101 -60 -25
-118 -50 -129 -55 -82 -36 -227 -90 -234 -86 -16 10 -251 -74 -251 -89 0 -3
10 -1 23 5 21 11 21 11 3 -4 -11 -9 -27 -14 -36 -11 -8 3 -51 -6 -94 -20 -44
-14 -80 -24 -82 -23 -1 2 -39 71 -84 153 -268 488 -475 830 -595 980 -100 125
-301 317 -384 365 -13 8 -2 23 69 93 96 95 119 120 176 197 93 126 165 269
208 410 36 123 41 159 41 320 -1 167 -20 258 -80 387 -143 306 -423 489 -730
478 -106 -4 -116 -5 -202 -30 -92 -27 -216 -90 -261 -132 -7 -7 -17 -13 -21
-13 -10 0 -125 -115 -169 -168 l-35 -42 -42 39 c-66 61 -146 76 -220 42 -91
-42 -128 -111 -129 -236 -1 -98 4 -130 48 -298 63 -238 68 -296 72 -832 1
-236 5 -450 8 -475 3 -25 8 -75 11 -112 3 -37 8 -77 10 -90 2 -13 6 -45 10
-73 41 -339 157 -785 295 -1130 35 -89 41 -102 98 -226 l39 -86 -76 -12 c-42
-6 -87 -13 -101 -15 -40 -7 -97 -14 -240 -31 -8 -1 -48 -5 -87 -9 -49 -6 -70
-12 -66 -20 4 -6 1 -6 -9 1 -8 7 -17 11 -19 9 -4 -4 -30 -7 -144 -21 -17 -2
-68 -7 -115 -10 -47 -4 -87 -10 -90 -12 -7 -8 270 14 298 22 6 3 12 0 12 -5 0
-6 -12 -10 -27 -11 -16 0 -37 -2 -48 -5 -22 -4 -141 -22 -195 -28 -39 -5 -194
-18 -255 -21 -60 -4 -61 -5 -43 -18 9 -7 14 -18 10 -24 -11 -17 -107 -41 -169
-42 -33 -1 -33 -1 -33 -51 0 -49 0 -50 -47 -74 -126 -64 -142 -133 -43 -184
25 -12 45 -28 44 -35 -2 -24 -56 -99 -74 -104 -9 -3 -23 -16 -29 -29 -22 -50
-19 -52 93 -50 57 0 102 -3 99 -7 -3 -5 80 -6 183 -3 314 11 356 13 494 31 8
1 42 5 75 9 32 4 62 9 65 11 3 2 34 6 70 10 36 4 67 9 70 12 6 6 -116 -4 -290
-23 -65 -7 -105 -10 -305 -19 -82 -3 -159 -9 -170 -12 -14 -3 -17 -2 -10 5 6
6 35 13 65 16 81 8 144 18 150 23 2 2 -35 2 -82 0 -92 -4 -111 6 -31 16 26 4
62 9 78 11 17 2 113 16 215 30 102 14 194 28 205 30 23 4 98 16 135 21 64 9
135 19 140 20 3 1 37 5 75 9 39 5 79 10 90 12 11 2 43 8 70 13 28 6 66 13 85
15 19 3 47 8 63 11 57 10 144 24 187 30 25 4 68 11 95 16 28 5 66 12 85 15 19
3 51 9 70 14 19 5 53 12 75 16 22 3 43 8 46 10 3 2 21 6 40 9 33 6 268 59 419
95 147 35 441 118 536 150 45 16 60 17 71 8 13 -10 12 -14 -4 -26 -17 -13 -17
-14 3 -8 14 4 27 0 38 -13 17 -19 16 -20 -56 -41 -40 -12 -102 -30 -138 -40
-36 -11 -89 -24 -118 -30 -30 -5 -57 -12 -61 -14 -4 -3 -22 -8 -39 -11 -38 -6
-142 -30 -231 -51 -77 -19 -104 -24 -243 -48 -23 -4 -91 -16 -118 -22 -38 -7
-508 -108 -710 -153 -124 -27 -238 -52 -255 -54 -16 -3 6 -3 49 -1 44 3 82 6
85 8 3 2 31 7 61 10 52 6 76 10 145 21 79 13 155 25 200 31 28 3 57 8 65 9
137 28 232 48 260 55 19 5 53 12 75 16 22 3 43 8 46 10 4 2 24 6 45 10 39 6
266 63 514 129 74 20 204 59 288 87 85 27 156 48 158 45 3 -3 -14 -18 -38 -34
-24 -16 -119 -83 -213 -148 -294 -205 -941 -636 -1160 -772 -619 -384 -1234
-711 -1606 -851 -315 -120 -507 -162 -741 -163 -293 -1 -431 136 -373 372 26
105 52 129 167 159 122 32 175 173 105 279 -37 56 -86 76 -182 76 -70 0 -89
-4 -145 -32 -302 -149 -432 -564 -274 -874 32 -65 114 -161 182 -215 77 -60
206 -122 293 -139 111 -23 312 -28 429 -10 231 35 545 135 818 261 41 19 75
34 77 34 16 0 455 215 635 310 231 124 708 399 875 505 28 18 88 56 135 86
162 103 656 436 850 573 107 77 245 174 306 217 61 44 117 79 124 79 7 0 108
-47 224 -104 346 -171 500 -234 684 -280 165 -42 277 -55 424 -50 484 14 898
251 1078 613 182 367 86 845 -214 1067 l-65 48 27 17 c15 8 106 62 202 119
396 235 809 516 1185 809 133 104 436 349 450 364 13 14 17 17 -180 -130 -259
-193 -588 -423 -605 -423 -5 0 -10 -3 -12 -8 -6 -14 -506 -328 -673 -422 -442
-250 -501 -281 -522 -274 -10 3 -25 8 -33 10 -8 3 39 34 105 70 66 36 201 111
300 167 99 56 183 101 188 99 4 -1 10 5 13 13 4 8 10 15 16 15 21 0 573 354
848 545 253 175 703 517 770 585 3 3 41 37 85 75 72 63 127 111 159 140 295
261 711 673 957 945 161 178 336 398 364 456 25 52 84 194 82 194 -2 0 -81
-99 -177 -219 -96 -121 -177 -218 -181 -216 -3 3 -30 -23 -60 -57 -30 -34 -61
-69 -69 -78 -8 -9 -40 -45 -70 -80 -119 -135 -237 -260 -247 -260 -4 0 -3 4 2
8 6 4 64 70 130 147 66 76 127 146 135 155 8 9 40 45 70 80 30 36 71 83 91
105 54 61 235 278 326 390 51 65 83 113 87 135 l7 35 -28 -34 c-36 -45 -314
-373 -328 -387 -5 -6 -33 -37 -62 -70 -64 -74 -100 -114 -238 -263 -135 -146
-675 -684 -805 -802 -172 -156 -304 -273 -385 -343 l-80 -68 66 63 c37 35 113
107 170 159 326 300 384 355 644 615 245 244 361 365 495 514 41 46 80 89 85
95 73 79 355 423 433 529 49 65 53 100 12 105 -21 2 -42 -17 -137 -130z
m-7110 -544 c94 -26 174 -73 273 -160 74 -66 167 -228 199 -349 20 -73 27
-257 14 -340 -36 -232 -164 -466 -364 -668 -55 -56 -205 -181 -237 -198 -19
-10 -13 -15 59 -53 43 -24 88 -50 99 -59 10 -9 56 -45 101 -81 173 -139 317
-313 475 -576 53 -88 198 -341 198 -345 0 -12 78 -134 84 -130 3 3 4 2 1 -2
-3 -3 6 -25 19 -47 13 -23 40 -72 61 -111 166 -307 285 -502 378 -621 83 -105
176 -120 314 -50 62 31 217 144 248 181 6 7 48 43 95 81 47 38 87 71 90 74 3
3 39 31 80 61 272 202 504 320 722 370 129 29 319 23 423 -13 128 -45 214
-115 290 -238 71 -116 97 -209 100 -360 4 -142 -9 -219 -54 -329 -107 -258
-358 -452 -694 -535 -366 -92 -686 -33 -1197 218 -69 33 -131 60 -137 60 -7
-1 -13 2 -13 6 0 13 -211 112 -249 117 -25 3 -49 -3 -78 -19 -48 -27 -205
-131 -224 -150 -8 -7 -47 -36 -88 -63 -40 -28 -76 -56 -78 -62 -3 -7 -9 -11
-13 -8 -5 3 -14 0 -22 -7 -7 -7 -42 -33 -78 -57 -36 -25 -67 -47 -70 -50 -3
-4 -39 -28 -80 -56 -41 -27 -77 -53 -80 -56 -5 -5 -443 -296 -560 -371 -194
-125 -673 -408 -691 -408 -5 0 -9 -4 -9 -9 0 -5 -8 -11 -17 -14 -10 -3 -47
-22 -83 -42 -210 -118 -712 -375 -733 -375 -3 0 -38 -15 -79 -34 -440 -204
-754 -296 -1022 -300 -129 -1 -194 7 -284 38 -95 32 -152 66 -222 135 -159
154 -194 371 -95 587 37 81 126 179 197 215 51 26 144 32 157 10 22 -35 -5
-61 -84 -81 -143 -35 -232 -192 -222 -395 10 -203 123 -329 343 -381 119 -28
378 -18 549 21 159 37 441 134 610 210 33 15 92 41 130 58 75 34 355 174 445
224 30 17 82 45 115 63 33 18 78 44 100 56 22 13 49 28 60 33 84 38 932 558
1000 613 6 5 43 29 83 54 39 25 72 50 72 55 0 5 3 8 8 7 6 -2 481 315 517 344
6 5 92 66 193 135 101 70 193 140 204 156 32 45 26 82 -26 146 -80 98 -284
414 -409 631 -43 74 -246 439 -287 515 -174 325 -269 466 -404 601 -160 158
-325 234 -511 234 -135 -1 -205 -32 -205 -94 0 -17 18 -119 39 -226 22 -107
41 -208 44 -225 3 -16 19 -104 35 -195 17 -91 33 -183 37 -205 3 -23 8 -52 10
-65 3 -14 12 -70 21 -125 8 -55 17 -111 20 -125 34 -204 42 -277 48 -425 9
-215 -28 -292 -106 -221 -52 49 -217 418 -311 696 -26 79 -94 311 -101 345 -2
11 -11 47 -19 80 -20 76 -63 303 -72 374 -4 30 -8 61 -10 70 -1 9 -6 45 -10
81 -3 36 -8 76 -10 90 -12 86 -18 265 -20 635 -2 475 -8 534 -76 801 -61 240
-57 337 13 360 20 6 64 -17 85 -45 7 -9 31 -62 54 -119 38 -95 59 -130 59
-101 0 19 75 162 118 225 172 254 479 381 745 308z m-238 -2058 c186 -57 371
-251 553 -581 182 -330 344 -622 379 -682 22 -38 23 -42 6 -47 -40 -12 -521
-138 -700 -184 l-193 -49 -1 41 c0 23 -2 48 -3 56 -2 8 -6 47 -10 85 -3 39 -8
81 -10 95 -3 14 -10 61 -16 105 -6 44 -20 130 -30 190 -10 61 -21 128 -25 150
-7 51 -61 359 -80 455 -3 14 -16 86 -30 160 -14 74 -30 153 -35 174 -5 22 -7
43 -4 48 8 12 142 1 199 -16z m4075 9 c0 -13 -480 -310 -680 -420 -52 -29
-123 -69 -157 -88 -35 -20 -63 -34 -63 -32 0 8 397 253 540 333 105 59 230
133 291 170 71 45 69 44 69 37z m-160 -55 c-14 -11 -63 -42 -110 -70 -47 -28
-92 -55 -100 -60 -217 -135 -670 -389 -670 -376 0 5 280 174 425 256 61 34
126 71 145 82 19 12 91 52 160 91 69 38 134 76 145 83 30 21 34 16 5 -6z m296
-178 c-2 -4 -31 -25 -63 -47 -32 -22 -60 -42 -63 -45 -5 -6 -22 -17 -190 -130
-211 -142 -632 -389 -590 -347 16 16 465 302 645 410 61 37 144 89 185 116 81
53 84 55 76 43z m-486 -217 c0 -6 -98 -71 -190 -127 -216 -130 -442 -239 -925
-446 -116 -49 -244 -105 -285 -124 -98 -46 -419 -173 -588 -234 -98 -35 -138
-45 -150 -38 -20 13 -25 45 -6 37 8 -3 14 0 14 6 0 6 5 11 11 11 5 0 7 -6 3
-12 -4 -7 1 -6 12 3 10 9 25 14 33 11 8 -2 11 0 8 5 -4 6 61 35 151 68 163 60
533 207 616 244 26 13 50 21 52 19 4 -4 -16 -14 -118 -57 -27 -11 -48 -22 -48
-25 0 -11 379 156 550 242 197 100 240 124 235 132 -3 5 0 12 6 16 8 4 9 3 5
-4 -11 -18 -7 -16 115 47 63 32 154 75 202 95 126 52 254 114 262 126 6 10 35
14 35 5z m-2614 -1116 c9 -16 -8 -24 -106 -54 -47 -14 -99 -30 -116 -35 -230
-75 -704 -194 -677 -170 7 6 126 42 185 55 27 6 548 172 608 194 63 23 96 26
106 10z"/>
<path d="M12275 6230 c-179 -37 -349 -172 -433 -342 -63 -129 -76 -196 -76
-383 0 -175 19 -303 74 -510 16 -60 45 -171 65 -245 20 -74 41 -153 46 -175
15 -60 36 -78 85 -72 36 4 257 102 287 128 7 5 38 27 70 48 261 172 441 442
486 726 14 85 7 257 -13 340 -28 114 -106 261 -175 330 -33 33 -67 67 -77 75
-26 21 -102 61 -138 72 -43 13 -153 18 -201 8z m188 -156 c171 -88 278 -286
280 -519 2 -136 -18 -230 -75 -355 -89 -194 -283 -382 -515 -499 -34 -17 -66
-31 -71 -31 -5 0 -28 73 -51 163 -23 89 -46 173 -52 187 -5 14 -12 36 -14 50
-3 14 -10 48 -16 75 -6 28 -13 64 -15 80 -3 17 -7 41 -10 54 -22 99 -24 327
-4 411 46 198 184 348 361 394 63 16 139 12 182 -10z"/>
<path d="M11647 4863 c-3 -7 -7 -52 -11 -160 -1 -22 3 -83 10 -135 6 -51 15
-124 18 -163 4 -38 9 -86 11 -105 2 -19 6 -66 10 -105 32 -362 134 -772 286
-1146 22 -53 52 -122 68 -155 25 -48 30 -54 30 -32 1 22 -92 521 -159 858 -10
52 -30 156 -44 230 -14 74 -28 146 -31 160 -3 14 -8 39 -11 55 -16 87 -127
597 -139 642 -15 50 -29 72 -38 56z"/>
<path d="M15475 3205 c-130 -32 -177 -51 -329 -127 -74 -37 -235 -133 -246
-147 -3 -3 -24 -19 -48 -34 -23 -15 -50 -34 -60 -42 -9 -7 -46 -37 -82 -65
-36 -28 -79 -63 -95 -78 -17 -15 -52 -44 -77 -65 -26 -21 -53 -44 -60 -51 -7
-7 -51 -45 -98 -85 -120 -103 -135 -124 -131 -184 2 -27 107 -126 197 -186
107 -71 320 -174 424 -205 120 -36 247 -54 359 -51 487 13 880 263 960 610 21
90 22 99 23 195 2 210 -86 380 -245 474 -118 70 -313 86 -492 41z m378 -143
c143 -64 218 -191 218 -367 -1 -91 -3 -109 -31 -196 -66 -213 -267 -369 -563
-439 -278 -65 -503 -37 -772 97 -83 42 -219 126 -273 170 l-23 19 138 120
c309 268 459 377 619 448 60 27 160 73 221 102 62 30 132 56 155 59 23 3 44 7
46 10 3 3 53 3 111 2 83 -2 116 -8 154 -25z"/>
<path d="M590 6941 c0 -4 16 -32 36 -62 27 -40 55 -66 112 -102 42 -26 129
-83 192 -127 107 -74 138 -89 153 -74 6 7 -23 59 -73 129 -19 28 -42 62 -49
78 -18 35 -24 34 -42 -5 -19 -43 -34 -45 -66 -11 -16 16 -52 55 -82 86 -54 58
-81 71 -81 40 0 -13 -10 -7 -36 20 -34 35 -64 48 -64 28z"/>
<path d="M5417 6276 c-146 -52 -224 -224 -165 -364 10 -24 18 -44 18 -45 0 -1
-26 -3 -58 -3 -131 -3 -230 -89 -323 -279 -91 -186 -109 -294 -76 -451 50
-234 276 -440 578 -528 107 -31 143 -36 259 -41 104 -4 181 11 304 59 l68 26
-7 -48 c-4 -26 -9 -58 -11 -72 -5 -44 -16 -125 -19 -150 -2 -14 -6 -45 -9 -70
-3 -25 -10 -85 -17 -133 -13 -105 -17 -289 -7 -369 19 -146 107 -232 230 -223
107 8 140 39 278 260 201 323 323 487 468 632 74 75 149 123 216 139 l29 7 -5
-69 c-3 -45 -22 -118 -52 -209 -53 -158 -83 -267 -92 -334 -3 -25 -8 -55 -11
-66 -10 -45 -11 -265 -1 -335 24 -177 111 -331 229 -405 94 -60 227 -76 362
-44 105 25 262 102 367 179 108 80 274 246 378 378 l80 102 28 -47 c35 -61
171 -197 249 -250 241 -162 545 -237 795 -196 208 34 350 117 565 327 131 130
394 428 428 486 50 87 48 166 -6 227 -39 44 -77 61 -159 69 l-63 6 -72 -99
c-74 -100 -91 -120 -189 -227 -217 -235 -353 -352 -459 -392 -38 -14 -76 -19
-161 -19 -107 0 -112 1 -185 37 -81 40 -196 137 -233 197 -33 53 -57 120 -63
174 -5 47 0 54 39 48 23 -3 131 25 175 45 62 30 147 119 175 184 78 180 -26
444 -209 531 -156 75 -349 21 -515 -144 -31 -31 -71 -77 -88 -102 -39 -57
-102 -184 -124 -251 -33 -102 -276 -458 -396 -581 -91 -94 -229 -210 -296
-249 -59 -35 -129 -37 -155 -5 -53 65 -18 354 71 584 102 265 108 521 17 662
-49 75 -169 152 -274 176 -68 15 -187 12 -258 -6 -124 -32 -290 -129 -413
-240 -70 -64 -69 -68 -31 70 35 130 37 143 34 209 -6 134 -93 223 -231 234
-88 7 -152 -17 -215 -80 -51 -51 -89 -71 -339 -181 -110 -48 -119 -51 -205
-51 -103 0 -125 8 -196 75 -45 43 -69 92 -69 145 0 28 19 80 68 184 65 140 75
174 70 232 -5 53 -24 105 -53 143 -14 19 -13 21 8 22 86 6 154 37 211 96 69
71 95 163 70 248 -20 65 -62 111 -136 149 -69 34 -153 40 -221 16z m159 -142
c90 -43 84 -142 -13 -201 -98 -59 -211 4 -187 103 23 94 114 139 200 98z
m-256 -433 c49 -25 79 -73 75 -119 -1 -20 -24 -82 -50 -137 -71 -149 -86 -199
-84 -278 3 -91 33 -153 109 -227 85 -83 148 -111 259 -118 110 -6 158 5 320
75 224 95 329 152 351 188 62 101 224 52 215 -65 -3 -36 -15 -101 -19 -109 -6
-10 -99 -374 -99 -388 0 -7 -4 -13 -8 -13 -10 0 -47 -144 -54 -210 -3 -30 -8
-71 -10 -92 -3 -22 1 -40 9 -47 16 -14 26 -3 153 179 56 80 114 161 130 180
47 57 145 154 193 190 25 19 47 37 50 41 15 20 184 101 240 115 165 42 345
-24 396 -144 21 -52 28 -186 14 -273 -7 -40 -30 -126 -52 -189 -112 -320 -145
-577 -93 -708 21 -52 83 -106 136 -120 62 -16 153 -7 202 20 151 81 409 321
516 479 228 336 235 348 291 489 67 170 168 293 293 355 112 56 209 47 279
-26 68 -71 106 -172 93 -254 -8 -58 -68 -135 -126 -162 -24 -11 -75 -24 -114
-27 -98 -10 -153 -25 -169 -47 -14 -20 -14 -106 0 -189 4 -25 8 -47 8 -50 1
-3 10 -27 20 -55 66 -173 257 -340 447 -390 70 -19 227 -19 299 0 83 22 190
75 230 115 3 3 27 23 55 45 43 35 101 93 270 270 66 69 147 164 193 226 45 60
69 72 92 44 17 -20 -16 -85 -78 -151 -26 -28 -58 -65 -72 -81 -129 -155 -326
-356 -415 -424 -95 -72 -180 -117 -260 -135 -126 -29 -301 -29 -416 0 -231 57
-452 198 -555 353 -45 67 -91 195 -100 276 l-7 58 -54 -92 c-54 -93 -182 -275
-238 -338 -62 -71 -212 -219 -260 -257 -209 -165 -440 -236 -575 -177 -125 55
-200 211 -205 429 -4 179 24 329 104 559 82 235 83 366 4 435 -28 25 -43 30
-84 30 -66 0 -144 -29 -227 -83 -83 -56 -136 -110 -311 -322 -66 -80 -310
-451 -360 -547 -25 -48 -67 -81 -103 -80 -44 1 -65 33 -74 112 -14 117 -9 184
42 600 16 127 43 280 68 379 13 50 22 91 20 91 -2 0 -25 -12 -51 -27 -26 -14
-61 -34 -78 -43 -16 -9 -66 -31 -110 -49 -44 -18 -89 -36 -100 -41 -120 -52
-259 -58 -420 -16 -227 59 -403 184 -481 342 -30 60 -36 84 -41 160 -6 98 6
148 69 281 89 189 186 247 308 184z"/>
<path d="M8935 4659 c-51 -27 -90 -69 -124 -133 -32 -60 -52 -124 -42 -131 15
-8 193 15 225 30 44 21 82 56 91 83 10 32 -47 145 -81 161 -31 14 -22 15 -69
-10z"/>
<path d="M13395 2359 c-38 -11 -90 -24 -115 -29 -62 -13 -152 -33 -310 -68
-74 -17 -200 -44 -280 -61 -80 -17 -228 -51 -330 -75 -192 -47 -205 -50 -305
-68 -33 -6 -67 -15 -75 -20 -12 -7 -10 -8 5 -4 19 5 176 31 255 42 29 4 242
46 303 60 42 10 65 14 112 23 95 19 249 52 255 56 4 2 18 6 32 9 27 4 261 66
358 94 30 9 60 17 65 18 6 1 37 11 70 22 77 26 51 26 -40 1z"/>
</g>
</svg>
